<?xml version="1.0" encoding="utf-8"?>
<!-- Generator: Adobe Illustrator 16.0.3, SVG Export Plug-In . SVG Version: 6.00 Build 0)  -->
<!DOCTYPE svg PUBLIC "-//W3C//DTD SVG 1.1//EN" "http://www.w3.org/Graphics/SVG/1.1/DTD/svg11.dtd" [
	<!ENTITY ns_extend "http://ns.adobe.com/Extensibility/1.0/">
	<!ENTITY ns_ai "http://ns.adobe.com/AdobeIllustrator/10.0/">
	<!ENTITY ns_graphs "http://ns.adobe.com/Graphs/1.0/">
	<!ENTITY ns_vars "http://ns.adobe.com/Variables/1.0/">
	<!ENTITY ns_imrep "http://ns.adobe.com/ImageReplacement/1.0/">
	<!ENTITY ns_sfw "http://ns.adobe.com/SaveForWeb/1.0/">
	<!ENTITY ns_custom "http://ns.adobe.com/GenericCustomNamespace/1.0/">
	<!ENTITY ns_adobe_xpath "http://ns.adobe.com/XPath/1.0/">
]>
<svg version="1.1" id="Layer_1" xmlns:x="&ns_extend;" xmlns:i="&ns_ai;" xmlns:graph="&ns_graphs;"
	 xmlns="http://www.w3.org/2000/svg" xmlns:xlink="http://www.w3.org/1999/xlink" x="0px" y="0px" width="32px" height="32px"
	 viewBox="0 0 32 32" enable-background="new 0 0 32 32" xml:space="preserve">
<metadata>
	<sfw  xmlns="&ns_sfw;">
		<slices></slices>
		<sliceSourceBounds  width="25" height="30.985" bottomLeftOrigin="true" y="473.508" x="903.5"></sliceSourceBounds>
	</sfw>
</metadata>
<path fill="#EC704E" d="M27.002,5.005H3.997C3.446,5.005,3,4.558,3,4.005c0-0.553,0.446-0.999,0.997-0.999h10.536v-1
	c0-0.552,0.447-0.999,0.998-0.999c0.551,0,0.997,0.447,0.997,0.999v1h10.476C27.555,3.006,28,3.454,28,4.005
	C28,4.558,27.555,5.005,27.002,5.005z M27.002,20.998H3.997V6.004h23.005V20.998z M7,13.032c0,2.213,1.791,4.007,4,4.007
	s4-1.794,4-4.007h-4V9.023C8.791,9.023,7,10.818,7,13.032z M18.023,9.003h-0.996v0.999h0.996V9.003z M18.023,11.002h-0.996v0.999
	h0.996V11.002z M18.023,13.001h-0.996V14h0.996V13.001z M18.023,15h-0.996v1h0.996V15z M18.023,17h-0.996v1h0.996V17z M24.01,9.003
	h-4.986v0.999h4.986V9.003z M24.01,11.002h-4.986v0.999h4.986V11.002z M24.01,13.001h-4.986V14h4.986V13.001z M24.01,15h-4.986v1
	h4.986V15z M24.01,17h-4.986v1h4.986V17z M12.781,25.996h2.251v-4.998h0.998v4.998h2.216l-2.216-4.998h1.996l3.988,8.996H20.02
	l-1.33-3h-2.66v4.998h-0.998v-4.998h-2.701l-1.351,3H8.985l4.052-8.996h1.995L12.781,25.996z M16.03,20.998L16.03,20.998
	L16.03,20.998L16.03,20.998z M15.032,20.998L15.032,20.998L15.032,20.998L15.032,20.998z"/>
</svg>
