<?xml version="1.0" encoding="utf-8"?>
<!-- Generator: Adobe Illustrator 19.0.0, SVG Export Plug-In . SVG Version: 6.00 Build 0)  -->
<svg version="1.1" xmlns="http://www.w3.org/2000/svg" xmlns:xlink="http://www.w3.org/1999/xlink" x="0px" y="0px"
	 viewBox="0 0 500 500" style="enable-background:new 0 0 500 500;" xml:space="preserve">
<style type="text/css">
	.st0{display:none;}
	.st1{display:inline;fill:none;stroke:#86EF9E;stroke-width:10;stroke-miterlimit:10;}
	.st2{display:inline;}
	.st3{fill:none;stroke:#86EF9E;stroke-width:10;stroke-miterlimit:10;}
	.st4{display:inline;fill:none;stroke:#ED8F88;stroke-width:10;stroke-miterlimit:10;}
	.st5{fill:#EAB77A;}
	.st6{fill:none;stroke:#EAB77A;stroke-width:10;stroke-miterlimit:10;}
	.st7{fill:#69A6CD;}
	.st8{display:inline;fill:none;stroke:#69A6CD;stroke-width:10;stroke-miterlimit:10;}
</style>
<g id="Layer_1" class="st0">
	<circle id="XMLID_3_" class="st1" cx="251.8" cy="250.8" r="200"/>
	<g id="XMLID_1_" class="st2">
		<line id="XMLID_2_" class="st3" x1="142.2" y1="249.9" x2="218" y2="325.8"/>
		<line id="XMLID_4_" class="st3" x1="214.5" y1="322.2" x2="360" y2="176.7"/>
	</g>
</g>
<g id="Layer_2" class="st0">
	<circle id="XMLID_12_" class="st4" cx="251.8" cy="250.8" r="200"/>
	<line id="XMLID_10_" class="st4" x1="179.5" y1="323.2" x2="325" y2="177.7"/>
	<line id="XMLID_9_" class="st4" x1="179.5" y1="177.7" x2="325" y2="323.2"/>
</g>
<g id="Layer_3">
	<g id="XMLID_11_">
		<path id="XMLID_20_" class="st5" d="M243.4,284.5c0.1-9.5,0.9-16.2,2.4-19.9c1.5-3.7,5.7-8.7,12.4-14.9c7.8-8.1,13.6-15,17.2-20.4
			c3.6-5.5,5.4-12.4,5.4-20.9c0-9.3-2.5-16.5-7.4-21.6c-4.9-5.1-12-7.6-21.1-7.6c-8.6,0-15.5,2.5-20.7,7.5c-5.2,5-7.9,11.7-8,20.2
			h-12.2l-0.2-0.7c-0.2-12,3.6-21.4,11.3-28.3c7.8-6.9,17.7-10.4,29.8-10.4c13,0,23.2,3.7,30.6,11c7.4,7.3,11.1,17.3,11.1,29.8
			c0,9.8-2.4,18.5-7.2,26.1c-4.8,7.6-11.7,15.5-20.6,23.8c-4.5,3.9-7.2,7.5-8.2,10.8c-1,3.3-1.5,8.5-1.5,15.5H243.4z M258.1,328.5
			H243v-16.8h15.2V328.5z"/>
	</g>
	<circle id="XMLID_13_" class="st6" cx="251.8" cy="251.8" r="200"/>
</g>
<g id="Layer_4" class="st0">
	<g id="XMLID_15_" class="st2">
		<path id="XMLID_17_" class="st7" d="M261.8,189.2h-20.2v-20.6h20.2V189.2z M261.8,328.5h-20.2V217.6h20.2V328.5z"/>
	</g>
	<circle id="XMLID_14_" class="st8" cx="251.8" cy="251.8" r="200"/>
</g>
</svg>
