<?xml version="1.0" encoding="utf-8"?>
<!-- Generator: Adobe Illustrator 19.0.0, SVG Export Plug-In . SVG Version: 6.00 Build 0)  -->
<svg version="1.1" xmlns="http://www.w3.org/2000/svg" xmlns:xlink="http://www.w3.org/1999/xlink" x="0px" y="0px"
	 viewBox="0 0 500 500" style="enable-background:new 0 0 500 500;" xml:space="preserve">
<style type="text/css">
	.st0{display:none;}
	.st1{display:inline;fill:none;stroke:#86EF9E;stroke-width:10;stroke-miterlimit:10;}
	.st2{display:inline;}
	.st3{fill:none;stroke:#86EF9E;stroke-width:10;stroke-miterlimit:10;}
	.st4{fill:#ED8F88;}
</style>
<g id="Layer_1" class="st0">
	<circle id="XMLID_3_" class="st1" cx="251.8" cy="250.8" r="200"/>
	<g id="XMLID_4_" class="st2">
		<line id="XMLID_1_" class="st3" x1="142.2" y1="249.9" x2="218" y2="325.8"/>
		<line id="XMLID_2_" class="st3" x1="214.5" y1="322.2" x2="360" y2="176.7"/>
	</g>
</g>
<g id="Layer_2">
	<g id="XMLID_12_">
		<path id="XMLID_15_" class="st4" d="M251.8,455.8c-113,0-205-92-205-205c0-113,92-205,205-205c113,0,205,92,205,205
			C456.8,363.9,364.8,455.8,251.8,455.8z M251.8,55.8c-107.5,0-195,87.5-195,195s87.5,195,195,195s195-87.5,195-195
			S359.3,55.8,251.8,55.8z"/>
	</g>
	<g id="XMLID_10_">
		
			<rect id="XMLID_14_" x="247.2" y="147.6" transform="matrix(0.7072 0.7071 -0.7071 0.7072 250.962 -105.0058)" class="st4" width="10" height="205.8"/>
	</g>
	<g id="XMLID_9_">
		
			<rect id="XMLID_13_" x="149.4" y="245.5" transform="matrix(0.7071 0.7071 -0.7071 0.7071 250.9859 -105.0059)" class="st4" width="205.8" height="10"/>
	</g>
</g>
</svg>
