<?xml version="1.0" encoding="utf-8"?>
<!-- Generator: Adobe Illustrator 16.0.3, SVG Export Plug-In . SVG Version: 6.00 Build 0)  -->
<!DOCTYPE svg PUBLIC "-//W3C//DTD SVG 1.1//EN" "http://www.w3.org/Graphics/SVG/1.1/DTD/svg11.dtd">
<svg version="1.1" id="Layer_1" xmlns="http://www.w3.org/2000/svg" xmlns:xlink="http://www.w3.org/1999/xlink" x="0px" y="0px"
	 width="32px" height="32px" viewBox="0 0 32 32" enable-background="new 0 0 32 32" xml:space="preserve">
<path fill="#FF6700" d="M6.806,31.307c0.491-1.57,1.232-3.781,2.226-6.979c4.331-0.686,6.123,0.546,8.874-4.366
	c-2.232,0.683-4.923-1.267-4.779-2.114c0.146-0.845,6.262,0.61,10.266-5.077c-5.047,1.114-6.662-1.338-6.011-1.707
	c1.502-0.854,5.962-0.355,8.339-2.67c1.227-1.192,1.801-4.09,1.301-5.123c-0.598-1.25-4.25-3.114-6.262-2.938
	c-2.013,0.174-5.17,7.664-6.107,7.606c-0.934-0.059-1.125-3.357,0.51-6.421C13.44,2.281,10.281,4.652,9.291,6.68
	c-1.845,3.771,0.173,12.425-0.474,12.733c-0.648,0.31-2.826-3.97-3.475-5.91c-0.888,2.974-0.909,5.954,1.685,9.91
	c-0.978,2.597-1.512,5.586-1.594,7.106c-0.038,1.213,1.158,1.475,1.374,0.789L6.806,31.307z"/>
</svg>
