<?xml version="1.0" encoding="utf-8"?>
<!-- Generator: Adobe Illustrator 19.0.0, SVG Export Plug-In . SVG Version: 6.00 Build 0)  -->
<svg version="1.1" xmlns="http://www.w3.org/2000/svg" xmlns:xlink="http://www.w3.org/1999/xlink" x="0px" y="0px"
	 viewBox="-191 288.3 228.8 217.7" style="enable-background:new -191 288.3 228.8 217.7;" xml:space="preserve">
<style type="text/css">
	.st0{display:none;}
	.st1{display:inline;fill:#3F3F3F;}
	.st2{fill:none;stroke:#FFFFFF;stroke-width:5;stroke-miterlimit:10;}
	.st3{display:none;fill:#29ABE2;}
	.st4{fill:#FFFFFF;}
</style>
<g id="Layer_2" class="st0">
	<rect x="-191" y="288.3" class="st1" width="228.8" height="217.7"/>
</g>
<g id="Layer_1">
	<g>
		<circle class="st2" cx="-76.2" cy="375.6" r="4.4"/>
		<circle class="st2" cx="-44.4" cy="402.9" r="4.4"/>
		<circle class="st2" cx="-45.8" cy="436.6" r="4.4"/>
		<circle class="st2" cx="-10.1" cy="455.8" r="4.4"/>
		<circle class="st2" cx="2.5" cy="496.3" r="4.4"/>
		<line class="st2" x1="-73.2" y1="378.8" x2="-47.8" y2="400"/>
		<line class="st2" x1="-44.3" y1="407.7" x2="-45.7" y2="433.1"/>
		<line class="st2" x1="-42.6" y1="438.2" x2="-14.1" y2="454"/>
		<line class="st2" x1="-8.5" y1="459" x2="1.2" y2="492.1"/>
	</g>
	
		<text transform="matrix(1 0 0 1 75.0002 557.9336)" style="display:none;fill:#666666;enable-background:new    ; font-family:'ArialMT'; font-size:125px; letter-spacing:6;">Zeus</text>
	
		<text transform="matrix(1 0 0 1 78.5002 588.4326)" style="display:none;fill:#29ABE2;enable-background:new    ; font-family:'ArialMT'; font-size:22px;">Burndown from the cloud</text>
	<path class="st3" d="M2.6,371.2c-0.4,0-0.8,0-1.2,0c-8.7,0-16.7,3.3-22.7,8.8l3.5,3.5c5.1-4.5,11.8-7.3,19.2-7.3c0.1,0,0.2,0,0.3,0
		C1.1,374.5,1.5,372.6,2.6,371.2z"/>
	<path class="st4" d="M7.5,369.1l0.1-0.2l-1.3-0.1c0.1-1.2,0.1-2.3,0.1-3.5c0-41.7-33.9-75.6-75.6-75.6c-29.8,0-56.4,17.2-68.7,44
		c-13.7,0.4-26.5,5.9-36.3,15.7c-10.1,10.1-15.7,23.6-15.7,37.9c0,28.4,22.2,51.9,50.5,53.5l0.1,0l62.8,0v-10l-62.5,0
		c-23-1.4-40.9-20.5-40.9-43.5c0-11.7,4.5-22.6,12.8-30.8c8.2-8.2,19-12.7,30.6-12.8l2.5,0.2c8.4,0.6,16.3,3.6,23,8.7l1.7,1.3
		l7.1-7.1l-2.2-1.7c-6.7-5.2-14.5-8.7-22.8-10.3c11.3-21.5,33.4-35,58.1-35c36.2,0,65.6,29.4,65.6,65.6c0,1.2,0,2.4-0.1,3.6
		c-7.1,1-13.9,4.1-19.3,9.1l-2,1.8l7.1,7.1l1.8-1.6c4.8-4.3,11.1-6.7,17.6-6.7c0,0,0,0,0,0l2.7,0c13.2,1.4,23.5,12.6,23.5,26.1
		c0,13.6-10.1,24.8-23.6,26.1l-14,0v10l14.3,0l0.5,0c18.8-1.7,32.9-17.2,32.9-36.1C37.6,386.9,24.6,372,7.5,369.1z"/>
</g>
</svg>
