<?xml version="1.0" encoding="utf-8"?>
<!-- Generator: Adobe Illustrator 16.0.3, SVG Export Plug-In . SVG Version: 6.00 Build 0)  -->
<!DOCTYPE svg PUBLIC "-//W3C//DTD SVG 1.1//EN" "http://www.w3.org/Graphics/SVG/1.1/DTD/svg11.dtd" [
	<!ENTITY ns_extend "http://ns.adobe.com/Extensibility/1.0/">
	<!ENTITY ns_ai "http://ns.adobe.com/AdobeIllustrator/10.0/">
	<!ENTITY ns_graphs "http://ns.adobe.com/Graphs/1.0/">
	<!ENTITY ns_vars "http://ns.adobe.com/Variables/1.0/">
	<!ENTITY ns_imrep "http://ns.adobe.com/ImageReplacement/1.0/">
	<!ENTITY ns_sfw "http://ns.adobe.com/SaveForWeb/1.0/">
	<!ENTITY ns_custom "http://ns.adobe.com/GenericCustomNamespace/1.0/">
	<!ENTITY ns_adobe_xpath "http://ns.adobe.com/XPath/1.0/">
]>
<svg version="1.1" id="Layer_1" xmlns:x="&ns_extend;" xmlns:i="&ns_ai;" xmlns:graph="&ns_graphs;"
	 xmlns="http://www.w3.org/2000/svg" xmlns:xlink="http://www.w3.org/1999/xlink" x="0px" y="0px" width="32px" height="32px"
	 viewBox="0 0 32 32" enable-background="new 0 0 32 32" xml:space="preserve">
<metadata>
	<sfw  xmlns="&ns_sfw;">
		<slices></slices>
		<sliceSourceBounds  width="16.814" height="27.17" bottomLeftOrigin="true" y="475.915" x="908.092"></sliceSourceBounds>
	</sfw>
</metadata>
<path fill="#EC704E" d="M14.017,9.302h3.934V7.826h-3.934V9.302z M17.922,9.793h-3.905c0,0-6.425,6.333-6.425,12.542
	c0,6.579,6.732,7.103,6.732,7.103s2.008,0.332,3.257,0c0,0,6.825-0.801,6.825-7.068C24.408,16.095,17.922,9.793,17.922,9.793z
	 M18.211,23.123c-0.158,0.32-0.371,0.588-0.643,0.802c-0.271,0.216-0.588,0.376-0.949,0.484c-0.047,0.014-0.096,0.019-0.143,0.03
	v1.092h-0.983v-0.963c-0.012,0-0.024,0.002-0.036,0.002c-0.279,0-0.538-0.021-0.778-0.066c-0.24-0.045-0.45-0.102-0.634-0.164
	c-0.184-0.064-0.337-0.131-0.459-0.201s-0.212-0.132-0.266-0.186c-0.055-0.055-0.093-0.133-0.116-0.234
	c-0.022-0.104-0.034-0.248-0.034-0.441c0-0.129,0.004-0.234,0.013-0.322c0.009-0.088,0.021-0.158,0.041-0.213
	c0.019-0.057,0.043-0.096,0.074-0.116c0.031-0.021,0.068-0.034,0.109-0.034c0.059,0,0.141,0.034,0.247,0.104
	c0.106,0.068,0.242,0.146,0.409,0.229c0.167,0.084,0.365,0.159,0.597,0.229c0.231,0.068,0.499,0.104,0.803,0.104
	c0.2,0,0.379-0.023,0.537-0.07c0.158-0.049,0.293-0.115,0.403-0.203c0.111-0.088,0.195-0.196,0.253-0.326
	c0.058-0.129,0.088-0.271,0.088-0.432c0-0.185-0.051-0.342-0.15-0.474c-0.1-0.131-0.231-0.247-0.391-0.351
	c-0.16-0.104-0.342-0.196-0.546-0.287c-0.204-0.09-0.415-0.186-0.631-0.283c-0.217-0.102-0.427-0.214-0.631-0.342
	c-0.204-0.127-0.387-0.277-0.547-0.454c-0.16-0.179-0.29-0.388-0.391-0.63c-0.1-0.239-0.149-0.529-0.149-0.866
	c0-0.39,0.072-0.729,0.215-1.021s0.338-0.537,0.581-0.729c0.244-0.192,0.531-0.338,0.862-0.434c0.17-0.049,0.346-0.085,0.526-0.108
	V15.21h0.983v1.034c0.041,0.005,0.08,0.003,0.119,0.009c0.19,0.029,0.37,0.068,0.536,0.118c0.166,0.05,0.313,0.105,0.442,0.167
	c0.13,0.063,0.216,0.112,0.257,0.153c0.043,0.041,0.069,0.076,0.086,0.104c0.015,0.029,0.024,0.067,0.037,0.116
	c0.01,0.048,0.019,0.107,0.021,0.184c0.004,0.07,0.006,0.161,0.006,0.271c0,0.12-0.004,0.225-0.01,0.309
	c-0.006,0.083-0.016,0.152-0.031,0.206c-0.014,0.057-0.035,0.096-0.062,0.119s-0.062,0.037-0.108,0.037
	c-0.045,0-0.119-0.027-0.22-0.087s-0.223-0.12-0.366-0.188c-0.146-0.066-0.313-0.13-0.507-0.187
	c-0.193-0.058-0.403-0.084-0.631-0.084c-0.18,0-0.336,0.021-0.469,0.065c-0.134,0.043-0.245,0.104-0.335,0.18
	c-0.089,0.076-0.156,0.17-0.199,0.277c-0.044,0.105-0.065,0.221-0.065,0.342c0,0.181,0.049,0.334,0.146,0.465
	c0.097,0.133,0.229,0.248,0.394,0.352c0.164,0.104,0.351,0.198,0.56,0.287c0.208,0.09,0.42,0.186,0.637,0.284
	c0.217,0.101,0.428,0.214,0.637,0.341s0.396,0.277,0.56,0.456c0.159,0.177,0.293,0.385,0.394,0.624
	c0.102,0.238,0.149,0.521,0.149,0.848C18.449,22.43,18.369,22.803,18.211,23.123z M17.891,7.334l1.998-4.919
	c0,0-1.26,1.046-1.998,1.046s-1.907-1.015-1.907-1.015s-1.26,1.015-1.998,1.015c-0.737,0-1.937-0.984-1.937-0.984l2.029,4.857
	H17.891z"/>
</svg>
