<?xml version="1.0" encoding="utf-8"?>
<!-- Generator: Adobe Illustrator 16.0.3, SVG Export Plug-In . SVG Version: 6.00 Build 0)  -->
<!DOCTYPE svg PUBLIC "-//W3C//DTD SVG 1.1//EN" "http://www.w3.org/Graphics/SVG/1.1/DTD/svg11.dtd">
<svg version="1.1" id="Layer_1" xmlns="http://www.w3.org/2000/svg" xmlns:xlink="http://www.w3.org/1999/xlink" x="0px" y="0px"
	 width="32px" height="32px" viewBox="0 0 32 32" enable-background="new 0 0 32 32" xml:space="preserve">
<path fill="#FF6700" d="M16.723,21.863c-0.457-0.432-0.989-0.764-1.57-0.971l-1.218-4.744l14.506-4.058l1.554,6.056L16.723,21.863z
	 M12.104,9.019l9.671-2.705l1.555,6.058l-9.67,2.705L12.104,9.019z M12.538,20.801c-0.27,0.076-0.521,0.184-0.765,0.303L7.509,4.489
	H5.905C5.744,4.84,5.407,5.087,5.009,5.087H3.007c-0.553,0-1.001-0.469-1.001-1.046s0.448-1.045,1.001-1.045h2.002
	c0.336,0,0.618,0.184,0.8,0.447h3.08v0.051L8.935,3.48l4.41,17.183C13.076,20.688,12.807,20.727,12.538,20.801z M12.797,21.811
	c1.869-0.522,3.79,0.635,4.291,2.588c0.501,1.951-0.608,3.957-2.478,4.48c-1.869,0.521-3.79-0.637-4.291-2.588
	S10.928,22.334,12.797,21.811z M12.27,25.814c0.214,0.836,1.038,1.332,1.839,1.106c0.801-0.226,1.276-1.084,1.062-1.92
	s-1.038-1.332-1.839-1.108C12.53,24.117,12.055,24.977,12.27,25.814z M29.87,21.701l-11.685,3.268
	c-0.021-0.279-0.06-0.561-0.131-0.842c-0.072-0.281-0.175-0.545-0.289-0.799l11.623-3.25L29.87,21.701z"/>
</svg>
